<svg xmlns="http://www.w3.org/2000/svg" xmlns:xlink="http://www.w3.org/1999/xlink" width="500" zoomAndPan="magnify" viewBox="0 0 375 374.999991" height="500" preserveAspectRatio="xMidYMid meet" version="1.0"><defs><clipPath id="e49435265d"><path d="M 24.226562 0 L 350.773438 0 L 350.773438 375 L 24.226562 375 Z M 24.226562 0 " clip-rule="nonzero"/></clipPath><clipPath id="aa81346bcd"><path d="M 72.226562 0 L 302.773438 0 C 329.285156 0 350.773438 21.492188 350.773438 48 L 350.773438 327 C 350.773438 353.507812 329.285156 375 302.773438 375 L 72.226562 375 C 45.714844 375 24.226562 353.507812 24.226562 327 L 24.226562 48 C 24.226562 21.492188 45.714844 0 72.226562 0 Z M 72.226562 0 " clip-rule="nonzero"/></clipPath><clipPath id="3dde6c0acc"><path d="M 32.011719 14.242188 L 342.621094 14.242188 L 342.621094 69.578125 L 32.011719 69.578125 Z M 32.011719 14.242188 " clip-rule="nonzero"/></clipPath><clipPath id="2ad1b4fe61"><path d="M 59.675781 14.242188 L 314.902344 14.242188 C 322.238281 14.242188 329.277344 17.15625 334.464844 22.347656 C 339.65625 27.535156 342.570312 34.574219 342.570312 41.910156 C 342.570312 49.25 339.65625 56.285156 334.464844 61.472656 C 329.277344 66.664062 322.238281 69.578125 314.902344 69.578125 L 59.675781 69.578125 C 52.339844 69.578125 45.300781 66.664062 40.113281 61.472656 C 34.925781 56.285156 32.011719 49.25 32.011719 41.910156 C 32.011719 34.574219 34.925781 27.535156 40.113281 22.347656 C 45.300781 17.15625 52.339844 14.242188 59.675781 14.242188 Z M 59.675781 14.242188 " clip-rule="nonzero"/></clipPath><clipPath id="fdb40bd006"><path d="M 28.84375 55.046875 L 129.773438 55.046875 L 129.773438 103.164062 L 28.84375 103.164062 Z M 28.84375 55.046875 " clip-rule="nonzero"/></clipPath><clipPath id="796d2ce59f"><path d="M 46.09375 55.046875 L 112.433594 55.046875 C 117.007812 55.046875 121.398438 56.863281 124.632812 60.097656 C 127.867188 63.332031 129.683594 67.722656 129.683594 72.296875 L 129.683594 85.914062 C 129.683594 90.488281 127.867188 94.875 124.632812 98.109375 C 121.398438 101.34375 117.007812 103.164062 112.433594 103.164062 L 46.09375 103.164062 C 41.519531 103.164062 37.132812 101.34375 33.894531 98.109375 C 30.660156 94.875 28.84375 90.488281 28.84375 85.914062 L 28.84375 72.296875 C 28.84375 67.722656 30.660156 63.332031 33.894531 60.097656 C 37.132812 56.863281 41.519531 55.046875 46.09375 55.046875 Z M 46.09375 55.046875 " clip-rule="nonzero"/></clipPath><clipPath id="73e1d1e9cd"><path d="M 24.226562 0.753906 L 350.476562 0.753906 L 350.476562 375 L 24.226562 375 Z M 24.226562 0.753906 " clip-rule="nonzero"/></clipPath><clipPath id="9b481bdb1b"><path d="M 72.226562 0.753906 L 302.769531 0.753906 C 329.277344 0.753906 350.769531 22.242188 350.769531 48.753906 L 350.769531 327.746094 C 350.769531 354.257812 329.277344 375.746094 302.769531 375.746094 L 72.226562 375.746094 C 45.714844 375.746094 24.226562 354.257812 24.226562 327.746094 L 24.226562 48.753906 C 24.226562 22.242188 45.714844 0.753906 72.226562 0.753906 Z M 72.226562 0.753906 " clip-rule="nonzero"/></clipPath><clipPath id="d067dc72a1"><path d="M 154.757812 281.375 L 220.59375 281.375 L 220.59375 347.210938 L 154.757812 347.210938 Z M 154.757812 281.375 " clip-rule="nonzero"/></clipPath><clipPath id="c2713ded7c"><path d="M 187.675781 281.375 C 169.496094 281.375 154.757812 296.113281 154.757812 314.292969 C 154.757812 332.472656 169.496094 347.210938 187.675781 347.210938 C 205.855469 347.210938 220.59375 332.472656 220.59375 314.292969 C 220.59375 296.113281 205.855469 281.375 187.675781 281.375 Z M 187.675781 281.375 " clip-rule="nonzero"/></clipPath><clipPath id="c3ff4cbde8"><path d="M 154.757812 281.375 L 220.582031 281.375 L 220.582031 347.199219 L 154.757812 347.199219 Z M 154.757812 281.375 " clip-rule="nonzero"/></clipPath><clipPath id="c6116a0e6e"><path d="M 187.667969 281.375 C 169.492188 281.375 154.757812 296.109375 154.757812 314.285156 C 154.757812 332.464844 169.492188 347.199219 187.667969 347.199219 C 205.847656 347.199219 220.582031 332.464844 220.582031 314.285156 C 220.582031 296.109375 205.847656 281.375 187.667969 281.375 Z M 187.667969 281.375 " clip-rule="nonzero"/></clipPath><clipPath id="6249e199ac"><path d="M 51.839844 25.839844 L 107 25.839844 L 107 81 L 51.839844 81 Z M 51.839844 25.839844 " clip-rule="nonzero"/></clipPath><clipPath id="c3276d4b13"><path d="M 79.421875 25.839844 C 64.1875 25.839844 51.839844 38.1875 51.839844 53.421875 C 51.839844 68.652344 64.1875 81 79.421875 81 C 94.652344 81 107 68.652344 107 53.421875 C 107 38.1875 94.652344 25.839844 79.421875 25.839844 Z M 79.421875 25.839844 " clip-rule="nonzero"/></clipPath><clipPath id="9883f1febd"><path d="M 108.382812 109 L 267 109 L 267 267.957031 L 108.382812 267.957031 Z M 108.382812 109 " clip-rule="nonzero"/></clipPath><clipPath id="f67796d371"><path d="M 107.632812 183.207031 L 107.632812 193.292969 C 107.632812 234.714844 141.210938 268.292969 182.632812 268.292969 L 192.71875 268.292969 C 234.140625 268.292969 267.71875 234.714844 267.71875 193.292969 L 267.71875 183.207031 C 267.71875 141.785156 234.140625 108.207031 192.71875 108.207031 L 182.632812 108.207031 C 141.210938 108.207031 107.632812 141.785156 107.632812 183.207031 Z M 107.632812 183.207031 " clip-rule="nonzero"/></clipPath><clipPath id="ce81479d53"><path d="M 183.53125 109.105469 L 191.820312 109.105469 C 233.238281 109.105469 266.820312 142.683594 266.820312 184.105469 L 266.820312 192.394531 C 266.820312 233.816406 233.238281 267.394531 191.820312 267.394531 L 183.53125 267.394531 C 142.109375 267.394531 108.53125 233.816406 108.53125 192.394531 L 108.53125 184.105469 C 108.53125 142.683594 142.109375 109.105469 183.53125 109.105469 Z M 183.53125 109.105469 " clip-rule="nonzero"/></clipPath><clipPath id="b624cc1584"><path d="M 107.632812 108.207031 L 267.382812 108.207031 L 267.382812 267.957031 L 107.632812 267.957031 Z M 107.632812 108.207031 " clip-rule="nonzero"/></clipPath><clipPath id="b72cad4be6"><path d="M 107.632812 183.207031 L 107.632812 193.292969 C 107.632812 234.714844 141.210938 268.292969 182.632812 268.292969 L 192.71875 268.292969 C 234.140625 268.292969 267.71875 234.714844 267.71875 193.292969 L 267.71875 183.207031 C 267.71875 141.785156 234.140625 108.207031 192.71875 108.207031 L 182.632812 108.207031 C 141.210938 108.207031 107.632812 141.785156 107.632812 183.207031 Z M 107.632812 183.207031 " clip-rule="nonzero"/></clipPath><clipPath id="c4222519aa"><path d="M 107.632812 183.203125 L 107.632812 193.289062 C 107.632812 234.707031 141.207031 268.285156 182.625 268.285156 L 192.714844 268.285156 C 234.132812 268.285156 267.710938 234.707031 267.710938 193.289062 L 267.710938 183.203125 C 267.710938 141.78125 234.132812 108.207031 192.714844 108.207031 L 182.625 108.207031 C 141.207031 108.207031 107.632812 141.78125 107.632812 183.203125 Z M 107.632812 183.203125 " clip-rule="nonzero"/></clipPath></defs><g clip-path="url(#e49435265d)"><g clip-path="url(#aa81346bcd)"><path fill="#deddd9" d="M 24.226562 0 L 350.773438 0 L 350.773438 375.019531 L 24.226562 375.019531 Z M 24.226562 0 " fill-opacity="1" fill-rule="nonzero"/></g></g><g clip-path="url(#3dde6c0acc)"><g clip-path="url(#2ad1b4fe61)"><path fill="#cc463c" d="M 32.011719 14.242188 L 342.621094 14.242188 L 342.621094 69.578125 L 32.011719 69.578125 Z M 32.011719 14.242188 " fill-opacity="1" fill-rule="nonzero"/></g></g><g clip-path="url(#fdb40bd006)"><g clip-path="url(#796d2ce59f)"><path fill="#cc463c" d="M 28.84375 55.046875 L 129.773438 55.046875 L 129.773438 103.164062 L 28.84375 103.164062 Z M 28.84375 55.046875 " fill-opacity="1" fill-rule="nonzero"/></g></g><g clip-path="url(#73e1d1e9cd)"><g clip-path="url(#9b481bdb1b)"><path stroke-linecap="butt" transform="matrix(0.75, 0, 0, 0.75, 24.225569, 0.753388)" fill="none" stroke-linejoin="miter" d="M 64.001329 0.000690351 L 371.391975 0.000690351 C 406.735727 0.000690351 435.391979 28.651734 435.391979 64.000695 L 435.391979 435.990302 C 435.391979 471.339263 406.735727 499.990307 371.391975 499.990307 L 64.001329 499.990307 C 28.652369 499.990307 0.00132521 471.339263 0.00132521 435.990302 L 0.00132521 64.000695 C 0.00132521 28.651734 28.652369 0.000690351 64.001329 0.000690351 Z M 64.001329 0.000690351 " stroke="#0f0e0c" stroke-width="40" stroke-opacity="1" stroke-miterlimit="4"/></g></g><path stroke-linecap="butt" transform="matrix(0.75, 0, 0, 0.75, 37.500002, 307.917167)" fill="none" stroke-linejoin="miter" d="M -0.00000271667 8.50107 L 400.000024 8.50107 " stroke="#000000" stroke-width="17" stroke-opacity="1" stroke-miterlimit="4"/><g clip-path="url(#d067dc72a1)"><g clip-path="url(#c2713ded7c)"><path fill="#ffde59" d="M 154.757812 281.375 L 220.59375 281.375 L 220.59375 347.210938 L 154.757812 347.210938 Z M 154.757812 281.375 " fill-opacity="1" fill-rule="nonzero"/></g></g><g clip-path="url(#c3ff4cbde8)"><g clip-path="url(#c6116a0e6e)"><path stroke-linecap="butt" transform="matrix(0.75, 0, 0, 0.75, 154.757397, 281.374611)" fill="none" stroke-linejoin="miter" d="M 43.880766 0.000518503 C 19.646389 0.000518503 0.00055435 19.646353 0.00055435 43.88073 C 0.00055435 68.120315 19.646389 87.766149 43.880766 87.766149 C 68.12035 87.766149 87.766185 68.120315 87.766185 43.88073 C 87.766185 19.646353 68.12035 0.000518503 43.880766 0.000518503 Z M 43.880766 0.000518503 " stroke="#000000" stroke-width="34" stroke-opacity="1" stroke-miterlimit="4"/></g></g><g clip-path="url(#6249e199ac)"><g clip-path="url(#c3276d4b13)"><path stroke-linecap="butt" transform="matrix(0.75, 0, 0, 0.75, 51.840815, 25.841349)" fill="none" stroke-linejoin="miter" d="M 36.774749 -0.00200714 C 16.462248 -0.00200714 -0.00129459 16.461536 -0.00129459 36.774037 C -0.00129459 57.08133 16.462248 73.544873 36.774749 73.544873 C 57.082042 73.544873 73.545585 57.08133 73.545585 36.774037 C 73.545585 16.461536 57.082042 -0.00200714 36.774749 -0.00200714 Z M 36.774749 -0.00200714 " stroke="#000000" stroke-width="34" stroke-opacity="1" stroke-miterlimit="4"/></g></g><path stroke-linecap="butt" transform="matrix(0.75, -0.000000000000000093, 0.000000000000000093, 0.75, 190.76176, 58.046161)" fill="none" stroke-linejoin="miter" d="M -0.0000549644 8.500953 L 195.651 8.500953 " stroke="#000000" stroke-width="17" stroke-opacity="1" stroke-miterlimit="4"/><path stroke-linecap="butt" transform="matrix(0.75, 0, 0, 0.75, 32.009841, 98.54617)" fill="none" stroke-linejoin="miter" d="M 0.00250319 8.50094 L 100.00251 8.50094 " stroke="#000000" stroke-width="17" stroke-opacity="1" stroke-miterlimit="4"/><path stroke-linecap="butt" transform="matrix(0.75, 0, 0, 0.75, 37.500002, 58.046161)" fill="none" stroke-linejoin="miter" d="M -0.00000271667 62.500956 L 95.958337 62.500956 C 110.869796 62.500956 122.958339 50.412414 122.958339 35.500954 C 122.958339 20.589495 135.046881 8.500953 149.95834 8.500953 L 279.598974 8.500953 " stroke="#000000" stroke-width="17" stroke-opacity="1" stroke-miterlimit="4"/><g clip-path="url(#9883f1febd)"><g clip-path="url(#f67796d371)"><g clip-path="url(#ce81479d53)"><path fill="#215081" d="M 187.671875 108.207031 C 143.496094 108.207031 107.632812 144.070312 107.632812 188.246094 C 107.632812 232.417969 143.496094 268.285156 187.671875 268.285156 C 231.847656 268.285156 267.710938 232.417969 267.710938 188.246094 C 267.710938 144.070312 231.847656 108.207031 187.671875 108.207031 Z M 175.976562 184.261719 C 174.59375 200.136719 170.953125 215.53125 165.277344 230.503906 C 163.890625 234.15625 165.734375 238.25 169.390625 239.632812 C 173.042969 241.019531 177.136719 239.179688 178.519531 235.523438 C 182.535156 224.925781 185.609375 214.132812 187.671875 203.125 C 189.734375 214.132812 192.804688 224.925781 196.820312 235.523438 C 198.207031 239.179688 202.300781 241.019531 205.953125 239.632812 C 209.609375 238.25 211.449219 234.15625 210.066406 230.503906 C 204.394531 215.542969 200.753906 200.152344 199.367188 184.292969 C 207.851562 183.875 216.335938 182.988281 224.824219 181.609375 C 228.679688 180.980469 231.304688 177.339844 230.679688 173.480469 C 230.050781 169.625 226.410156 167.003906 222.550781 167.628906 C 199.285156 171.410156 176.015625 171.261719 152.75 167.621094 C 148.886719 167.019531 145.261719 169.664062 144.660156 173.523438 C 144.054688 177.386719 146.699219 181.011719 150.558594 181.613281 C 159.03125 182.941406 167.503906 183.828125 175.976562 184.261719 Z M 187.671875 138.957031 C 194.726562 138.957031 200.453125 144.683594 200.453125 151.738281 C 200.453125 158.789062 194.726562 164.519531 187.671875 164.519531 C 180.617188 164.519531 174.890625 158.789062 174.890625 151.738281 C 174.890625 144.683594 180.617188 138.957031 187.671875 138.957031 Z M 187.671875 138.957031 " fill-opacity="1" fill-rule="evenodd"/></g></g></g><g clip-path="url(#b624cc1584)"><g clip-path="url(#b72cad4be6)"><g clip-path="url(#c4222519aa)"><path stroke-linecap="butt" transform="matrix(0.75, 0, 0, 0.75, 107.631062, 108.206112)" fill="none" stroke-linejoin="miter" d="M 0.00233369 99.996017 L 0.00233369 113.443934 C 0.00233369 168.667892 44.767959 213.438726 99.991917 213.438726 L 113.445042 213.438726 C 168.669001 213.438726 213.439834 168.667892 213.439834 113.443934 L 213.439834 99.996017 C 213.439834 44.766851 168.669001 0.00122554 113.445042 0.00122554 L 99.991917 0.00122554 C 44.767959 0.00122554 0.00233369 44.766851 0.00233369 99.996017 Z M 0.00233369 99.996017 " stroke="#000000" stroke-width="34" stroke-opacity="1" stroke-miterlimit="4"/></g></g></g></svg>